<svg xmlns="http://www.w3.org/2000/svg" version="1.1" xmlns:xlink="http://www.w3.org/1999/xlink" xmlns:svgjs="http://svgjs.dev/svgjs" viewBox="0 0 800 800"><defs><linearGradient x1="50%" y1="0%" x2="50%" y2="100%" id="ffflurry-grad" gradientTransform="rotate(270)"><stop stop-color="#000000" stop-opacity="1" offset="0%"></stop><stop stop-color="hsl(30, 100%, 50%)" stop-opacity="1" offset="45%"></stop><stop stop-color="hsl(30, 70%, 65%)" stop-opacity="1" offset="100%"></stop></linearGradient></defs><rect width="100%" height="100%" fill="#000000"></rect><g fill="url(#ffflurry-grad)"><rect width="234" height="1" x="543" y="416.5" rx="0.5" transform="rotate(38, 660, 417)" opacity="0.99"></rect><rect width="264" height="1" x="-73" y="394.5" rx="0.5" transform="rotate(38, 59, 395)" opacity="0.20"></rect><rect width="243" height="1" x="278.5" y="759.5" rx="0.5" transform="rotate(38, 400, 760)" opacity="0.96"></rect><rect width="521" height="1" x="68.5" y="386.5" rx="0.5" transform="rotate(38, 329, 387)" opacity="0.58"></rect><rect width="467" height="1" x="112.5" y="168.5" rx="0.5" transform="rotate(38, 346, 169)" opacity="0.20"></rect><rect width="140" height="1" x="209" y="607.5" rx="0.5" transform="rotate(38, 279, 608)" opacity="0.85"></rect><rect width="767" height="1" x="135.5" y="335.5" rx="0.5" transform="rotate(38, 519, 336)" opacity="0.34"></rect><rect width="416" height="1" x="193" y="282.5" rx="0.5" transform="rotate(38, 401, 283)" opacity="0.40"></rect><rect width="151" height="1" x="148.5" y="25.5" rx="0.5" transform="rotate(38, 224, 26)" opacity="0.52"></rect><rect width="420" height="1" x="-148" y="236.5" rx="0.5" transform="rotate(38, 62, 237)" opacity="0.23"></rect><rect width="160" height="1" x="655" y="71.5" rx="0.5" transform="rotate(38, 735, 72)" opacity="0.39"></rect><rect width="136" height="1" x="214" y="690.5" rx="0.5" transform="rotate(38, 282, 691)" opacity="1.00"></rect><rect width="182" height="1" x="483" y="208.5" rx="0.5" transform="rotate(38, 574, 209)" opacity="0.97"></rect><rect width="293" height="1" x="-34.5" y="66.5" rx="0.5" transform="rotate(38, 112, 67)" opacity="0.25"></rect><rect width="363" height="1" x="259.5" y="59.5" rx="0.5" transform="rotate(38, 441, 60)" opacity="0.49"></rect><rect width="499" height="1" x="213.5" y="176.5" rx="0.5" transform="rotate(38, 463, 177)" opacity="0.85"></rect><rect width="261" height="1" x="597.5" y="178.5" rx="0.5" transform="rotate(38, 728, 179)" opacity="0.52"></rect><rect width="366" height="1" x="-3" y="319.5" rx="0.5" transform="rotate(38, 180, 320)" opacity="0.91"></rect><rect width="211" height="1" x="655.5" y="541.5" rx="0.5" transform="rotate(38, 761, 542)" opacity="0.30"></rect><rect width="534" height="1" x="57" y="65.5" rx="0.5" transform="rotate(38, 324, 66)" opacity="0.45"></rect><rect width="72" height="1" x="397" y="440.5" rx="0.5" transform="rotate(38, 433, 441)" opacity="0.47"></rect><rect width="86" height="1" x="165" y="95.5" rx="0.5" transform="rotate(38, 208, 96)" opacity="0.89"></rect><rect width="437" height="1" x="365.5" y="551.5" rx="0.5" transform="rotate(38, 584, 552)" opacity="0.38"></rect><rect width="506" height="1" x="-67" y="185.5" rx="0.5" transform="rotate(38, 186, 186)" opacity="0.52"></rect><rect width="120" height="1" x="196" y="508.5" rx="0.5" transform="rotate(38, 256, 509)" opacity="0.83"></rect><rect width="167" height="1" x="463.5" y="34.5" rx="0.5" transform="rotate(38, 547, 35)" opacity="0.57"></rect><rect width="297" height="1" x="-106.5" y="653.5" rx="0.5" transform="rotate(38, 42, 654)" opacity="0.70"></rect><rect width="223" height="1" x="52.5" y="600.5" rx="0.5" transform="rotate(38, 164, 601)" opacity="0.94"></rect><rect width="521" height="1" x="269.5" y="718.5" rx="0.5" transform="rotate(38, 530, 719)" opacity="0.09"></rect><rect width="158" height="1" x="508" y="107.5" rx="0.5" transform="rotate(38, 587, 108)" opacity="0.74"></rect><rect width="206" height="1" x="628" y="701.5" rx="0.5" transform="rotate(38, 731, 702)" opacity="0.85"></rect><rect width="353" height="1" x="57.5" y="759.5" rx="0.5" transform="rotate(38, 234, 760)" opacity="0.81"></rect><rect width="247" height="1" x="-13.5" y="733.5" rx="0.5" transform="rotate(38, 110, 734)" opacity="0.18"></rect><rect width="157" height="1" x="253.5" y="527.5" rx="0.5" transform="rotate(38, 332, 528)" opacity="0.76"></rect><rect width="190" height="1" x="124" y="414.5" rx="0.5" transform="rotate(38, 219, 415)" opacity="0.45"></rect><rect width="450" height="1" x="-152" y="519.5" rx="0.5" transform="rotate(38, 73, 520)" opacity="0.17"></rect><rect width="241" height="1" x="48.5" y="479.5" rx="0.5" transform="rotate(38, 169, 480)" opacity="0.98"></rect><rect width="108" height="1" x="362" y="664.5" rx="0.5" transform="rotate(38, 416, 665)" opacity="0.50"></rect><rect width="297" height="1" x="262.5" y="568.5" rx="0.5" transform="rotate(38, 411, 569)" opacity="0.30"></rect><rect width="241" height="1" x="385.5" y="534.5" rx="0.5" transform="rotate(38, 506, 535)" opacity="0.29"></rect><rect width="342" height="1" x="463" y="731.5" rx="0.5" transform="rotate(38, 634, 732)" opacity="0.95"></rect><rect width="282" height="1" x="526" y="30.5" rx="0.5" transform="rotate(38, 667, 31)" opacity="0.49"></rect><rect width="287" height="1" x="527.5" y="549.5" rx="0.5" transform="rotate(38, 671, 550)" opacity="0.78"></rect><rect width="578" height="1" x="423" y="306.5" rx="0.5" transform="rotate(38, 712, 307)" opacity="0.51"></rect><rect width="549" height="1" x="8.5" y="259.5" rx="0.5" transform="rotate(38, 283, 260)" opacity="0.69"></rect><rect width="240" height="1" x="-85" y="80.5" rx="0.5" transform="rotate(38, 35, 81)" opacity="0.49"></rect></g></svg>